<?xml version="1.0" encoding="UTF-8"?><svg id="Layer_1" xmlns="http://www.w3.org/2000/svg" xmlns:xlink="http://www.w3.org/1999/xlink" viewBox="0 0 1150.61 616.76"><defs><style>.cls-1{fill:none;}.cls-2{clip-path:url(#clippath);}.cls-3{fill:#f8af9f;}.cls-4{fill:#00bed9;}.cls-5{fill:#017dba;}.cls-6{fill:#007dba;}.cls-7{fill:#ee363a;}.cls-8{fill:#f47f24;}.cls-9,.cls-10,.cls-11{fill:#fff;}.cls-12{fill:#fdbd2c;}.cls-13{fill:#00a4ba;}.cls-14{fill:#71ceee;}.cls-15{letter-spacing:.08em;}.cls-16{letter-spacing:.04em;}.cls-17{clip-path:url(#clippath-1);}.cls-18{clip-path:url(#clippath-2);}.cls-10{opacity:.18;}.cls-11{font-family:Gotham-Medium, Gotham;font-size:33.03px;}</style><clipPath id="clippath"><rect class="cls-1" x="56.53" y="66.62" width="498.47" height="85.83"/></clipPath><clipPath id="clippath-1"><rect class="cls-1" x="56.53" y="66.62" width="498.47" height="85.83"/></clipPath><clipPath id="clippath-2"><rect class="cls-1" x="56.53" y="66.62" width="498.47" height="85.83"/></clipPath></defs><g><rect class="cls-9" x="616.76" width="533.84" height="616.76"/><g><g><g><path class="cls-5" d="M738.49,77.59l-10.99,33.16h-6.54l-8.2-24.54-8.34,24.54h-6.58l-10.99-33.16h6.4l8.24,25.2,8.57-25.2h5.69l8.38,25.35,8.48-25.35h5.87Z"/><path class="cls-5" d="M774.39,105.58v5.16h-24.87v-33.16h24.21v5.16h-18.05v8.62h16.01v5.07h-16.01v9.14h18.71Z"/></g><g><path class="cls-5" d="M833.61,110.75l-6.77-9.71c-.28,.03-.71,.05-1.28,.05h-7.49v9.66h-6.16v-33.16h13.64c2.87,0,5.38,.47,7.51,1.42,2.13,.95,3.77,2.31,4.9,4.07,1.14,1.77,1.71,3.87,1.71,6.3s-.61,4.64-1.82,6.44c-1.22,1.8-2.96,3.14-5.23,4.03l7.63,10.9h-6.63Zm-2.23-26.24c-1.39-1.14-3.43-1.71-6.11-1.71h-7.2v13.22h7.2c2.68,0,4.72-.58,6.11-1.73,1.39-1.15,2.08-2.79,2.08-4.9s-.7-3.74-2.08-4.88Z"/><path class="cls-5" d="M856.1,107.36c-2.56-2.57-3.84-6.26-3.84-11.06v-18.71h6.16v18.48c0,6.51,2.81,9.76,8.43,9.76s8.39-3.25,8.39-9.76v-18.48h6.06v18.71c0,4.8-1.27,8.49-3.81,11.06-2.54,2.57-6.1,3.86-10.68,3.86s-8.15-1.29-10.71-3.86Z"/><path class="cls-5" d="M925.39,77.59v33.16h-5.07l-18.29-22.46v22.46h-6.11v-33.16h5.07l18.29,22.46v-22.46h6.11Z"/></g><g><path class="cls-5" d="M969.08,82.75v10.09h16.01v5.21h-16.01v12.7h-6.16v-33.16h24.21v5.16h-18.05Z"/><path class="cls-5" d="M1009.07,109.02c-2.72-1.47-4.85-3.51-6.4-6.11-1.55-2.61-2.32-5.52-2.32-8.74s.77-6.13,2.32-8.74c1.55-2.61,3.68-4.64,6.4-6.11,2.72-1.47,5.76-2.2,9.14-2.2s6.43,.73,9.14,2.2c2.72,1.47,4.85,3.5,6.4,6.09,1.55,2.59,2.32,5.51,2.32,8.76s-.77,6.17-2.32,8.76c-1.55,2.59-3.68,4.62-6.4,6.09-2.72,1.47-5.76,2.2-9.14,2.2s-6.43-.73-9.14-2.2Zm15.11-4.69c1.77-.99,3.16-2.38,4.17-4.17,1.01-1.78,1.52-3.78,1.52-5.99s-.51-4.21-1.52-5.99c-1.01-1.78-2.4-3.17-4.17-4.17-1.77-.99-3.76-1.49-5.97-1.49s-4.2,.5-5.97,1.49c-1.77,.99-3.16,2.39-4.17,4.17-1.01,1.78-1.52,3.78-1.52,5.99s.51,4.21,1.52,5.99c1.01,1.78,2.4,3.17,4.17,4.17,1.77,.99,3.76,1.49,5.97,1.49s4.2-.5,5.97-1.49Z"/><path class="cls-5" d="M1070.31,110.75l-6.77-9.71c-.28,.03-.71,.05-1.28,.05h-7.49v9.66h-6.16v-33.16h13.64c2.87,0,5.38,.47,7.51,1.42,2.13,.95,3.77,2.31,4.9,4.07,1.14,1.77,1.71,3.87,1.71,6.3s-.61,4.64-1.82,6.44c-1.22,1.8-2.96,3.14-5.23,4.03l7.63,10.9h-6.63Zm-2.23-26.24c-1.39-1.14-3.43-1.71-6.11-1.71h-7.2v13.22h7.2c2.68,0,4.72-.58,6.11-1.73,1.39-1.15,2.08-2.79,2.08-4.9s-.7-3.74-2.08-4.88Z"/></g></g><g><g><g><path class="cls-8" d="M1004.01,383.52h-13.06c-.58,0-1.04,.47-1.04,1.04,0,.2,.07,.37,.16,.55l26.18,51.16h.02c.38,.69,1.09,1.16,1.93,1.16h12.81c.58,0,1.04-.47,1.04-1.04,0-.2-.06-.39-.16-.55l-27.88-52.32Z"/><g><path class="cls-12" d="M1007.21,418.59h-1.63s0,17.21,0,17.21c0,.9-.73,1.64-1.63,1.64h-10.78c-.9,0-1.63-.73-1.63-1.63v-27.01c0-.9,.73-1.63,1.63-1.63h8.19l5.86,11.44Z"/><path class="cls-12" d="M1012.91,394.99c3.74,0,6.35,2.8,6.35,6.1,0,2.42-1.15,4.27-3.07,5.29l5.96,11.18c6.77-2.51,10.94-9.44,10.94-16.4,0-8.86-6.79-17.65-16.77-17.65h-12.31l6.12,11.47h2.78Z"/></g></g><g><path class="cls-8" d="M823.39,455.65h-20.47c-.9,0-1.64,.73-1.64,1.64,0,.32,.11,.58,.25,.87l41.05,80.21,.03,.02c.59,1.07,1.71,1.8,3.02,1.81h0s20.08,0,20.08,0h0s0,0,0,0c.9,0,1.64-.73,1.64-1.64,0-.32-.09-.61-.25-.86h0s-43.72-82.03-43.72-82.03Z"/><g><path class="cls-12" d="M828.41,510.64h-2.56v26.98c0,1.42-1.15,2.56-2.56,2.56h0s-16.89,0-16.89,0c0,0-.01,0-.02,0-1.42,0-2.56-1.15-2.56-2.56,0,0,0,0,0,0,0,0,0-42.34,0-42.34,0-1.42,1.15-2.56,2.56-2.56h12.85l9.18,17.93Z"/><path class="cls-12" d="M837.34,473.64c5.86,0,9.96,4.38,9.96,9.56,0,3.8-1.81,6.69-4.81,8.29l9.35,17.53c10.62-3.94,17.15-14.8,17.15-25.71,0-13.89-10.64-27.66-26.3-27.66h-19.3l9.59,17.99h4.36Z"/></g></g><g><path class="cls-3" d="M723.6,497.97c0,4.72,3.87,8.54,8.65,8.54s8.65-3.7,8.65-8.54-3.87-8.65-8.65-8.65-8.65,3.87-8.65,8.65Z"/><path class="cls-7" d="M747.66,516.68l9.23,13.28c.3,.42,.49,.94,.49,1.5,0,.87-.44,1.64-1.1,2.1l-.4,.27c-7.12,4.78-15.43,7.51-24.53,7.51-24.08,0-43.49-19.41-43.49-43.43s19.41-43.6,43.49-43.6c9.05,0,17.19,2.62,24.31,7.4l.43,.3h0c.68,.47,1.12,1.24,1.12,2.12,0,.56-.18,1.07-.48,1.49l-9.24,13.11c-.46,.69-1.24,1.14-2.13,1.14-.56,0-1.07-.18-1.49-.48h0c-3.64-2.64-8.06-4.13-12.91-4.13-12.47,0-21.4,10.07-21.4,22.54s8.94,22.43,21.4,22.43c4.87,0,9.42-1.56,13.07-4.21h.01c.42-.3,.94-.49,1.5-.49,.86,0,1.61,.42,2.08,1.07l.06,.08Z"/></g><g><path class="cls-4" d="M909.04,497.97c0,4.72,3.87,8.54,8.65,8.54s8.65-3.7,8.65-8.54-3.87-8.65-8.65-8.65-8.65,3.87-8.65,8.65Z"/><path class="cls-13" d="M933.1,516.68l9.23,13.28c.3,.42,.49,.94,.49,1.5,0,.87-.44,1.64-1.1,2.1l-.4,.27c-7.12,4.78-15.43,7.51-24.53,7.51-24.08,0-43.49-19.41-43.49-43.43s19.41-43.6,43.49-43.6c9.05,0,17.19,2.62,24.31,7.4l.43,.3h0c.68,.47,1.12,1.24,1.12,2.12,0,.56-.18,1.07-.48,1.49l-9.24,13.11c-.46,.69-1.24,1.14-2.13,1.14-.56,0-1.07-.18-1.49-.48h0c-3.64-2.64-8.06-4.13-12.91-4.13-12.47,0-21.4,10.07-21.4,22.54s8.94,22.43,21.4,22.43c4.87,0,9.42-1.56,13.07-4.21h.01c.42-.3,.94-.49,1.5-.49,.86,0,1.61,.42,2.08,1.07l.06,.08Z"/></g><g><path class="cls-8" d="M1011.1,537.58v-14.78h0s0-.04,0-.06c0-1.42-1.15-2.56-2.56-2.56,0,0-.02,0-.03,0h-31.23v20.01h31.25s0,0,0,0c1.42,0,2.56-1.15,2.56-2.56,0-.02,0-.03,0-.05h0Z"/><path class="cls-12" d="M977.29,458.22c0-1.42-1.15-2.56-2.56-2.56,0,0-.02,0-.02,0h-16.88c-1.41,0-2.56,1.15-2.56,2.56v79.41c0,1.42,1.15,2.56,2.56,2.56,0,0,0,0,.01,0h19.45v-81.97h0Z"/></g><g><path class="cls-13" d="M710.48,410.51c0,3.01,2.47,5.45,5.52,5.45s5.52-2.36,5.52-5.45-2.47-5.52-5.52-5.52-5.52,2.47-5.52,5.52Z"/><path class="cls-4" d="M725.83,422.45l5.89,8.47c.19,.27,.31,.6,.31,.95,0,.56-.28,1.05-.7,1.34l-.25,.17c-4.54,3.05-9.84,4.79-15.65,4.79-15.36,0-27.74-12.38-27.74-27.7s12.38-27.81,27.74-27.81c5.77,0,10.96,1.67,15.5,4.72l.28,.19h0c.43,.3,.71,.79,.71,1.35,0,.35-.12,.68-.31,.95l-5.89,8.36c-.29,.44-.79,.73-1.36,.73-.35,0-.68-.11-.95-.31h0c-2.32-1.68-5.14-2.63-8.24-2.63-7.95,0-13.65,6.43-13.65,14.38s5.7,14.31,13.65,14.31c3.11,0,6.01-1,8.33-2.69h0c.27-.19,.6-.31,.96-.31,.55,0,1.03,.27,1.32,.68l.04,.05Z"/></g><g><path class="cls-4" d="M1039.59,475.22h37c1.42,0,2.57-1.15,2.57-2.56v-14.46c0-1.42-1.15-2.56-2.56-2.56h-56.53c-1.42,0-2.56,1.15-2.56,2.56v79.41c0,1.42,1.15,2.56,2.56,2.56h57.78c1.42,0,2.56-1.15,2.56-2.56v-14.46c0-1.42-1.15-2.56-2.56-2.56h-38.25v-45.37Z"/><path class="cls-13" d="M1039.59,514.16h28.41c1.41,0,2.56-1.15,2.56-2.56v-11.67c0-1.42-1.14-2.56-2.56-2.56h-28.41v16.79Z"/></g><g><path class="cls-7" d="M1054.49,396.01h23.6c.9,0,1.64-.73,1.64-1.63v-9.22c0-.9-.73-1.63-1.63-1.63h-36.05c-.9,0-1.63,.73-1.63,1.63v50.65c0,.9,.73,1.63,1.63,1.63h36.85c.9,0,1.63-.73,1.63-1.64v-9.22c0-.9-.73-1.63-1.63-1.63h-24.4v-28.94Z"/><path class="cls-3" d="M1054.49,420.84h18.12c.9,0,1.64-.73,1.64-1.64v-7.44c0-.9-.73-1.63-1.63-1.63h-18.12v10.71Z"/></g><g><polygon class="cls-8" points="753.91 424.84 769.67 424.84 773.83 437.33 749.76 437.33 753.91 424.84"/><path class="cls-12" d="M787.84,435.95l-19.6-51.15c-.31-.78-1.06-1.34-1.94-1.39h-8.89c-.93,0-1.72,.57-2.05,1.39l-19.53,51.13c-.04,.11-.07,.23-.07,.36,0,.58,.47,1.04,1.04,1.04h12.96l12.04-36.2,12.03,36.2h13.03c.58,0,1.04-.47,1.04-1.04,0-.12-.02-.23-.06-.34Z"/></g><g><path class="cls-4" d="M938.37,395.9h22.15c.9,0,1.63-.73,1.63-1.63v-9.22c0-.9-.73-1.63-1.63-1.63h-34.56c-.9,0-1.63,.73-1.63,1.63v50.65c0,.9,.73,1.63,1.63,1.63h10.79c.9,0,1.62-.74,1.62-1.64v-39.79Z"/><path class="cls-13" d="M938.37,419.14h16.3c.9,0,1.63-.73,1.63-1.63v-8.77c0-.89-.74-1.62-1.63-1.62h-16.3v12.02Z"/></g><path class="cls-7" d="M981.9,383.41h-10.78c-.9,0-1.63,.73-1.63,1.63v50.65c0,.9,.73,1.63,1.63,1.63h10.78c.9,0,1.63-.74,1.63-1.64v-50.65c0-.9-.73-1.63-1.63-1.63Z"/><path class="cls-4" d="M786.25,455.65h-16.91c-1.41,0-2.56,1.15-2.56,2.56v79.41c0,1.42,1.15,2.56,2.56,2.56h16.91c1.41,0,2.56-1.15,2.56-2.57v-79.41c0-1.42-1.15-2.56-2.56-2.56Z"/><g><path class="cls-13" d="M870.03,435.6l-19.47-50.8c-.29-.78-1.08-1.39-1.94-1.39h-8.89c-.93,0-1.72,.57-2.05,1.39l-5.94,15.54,6.77,17.66,5.61-16.87,7.88,23.71h0l3.65,10.94c.28,.9,1.11,1.55,2.1,1.55h11.43c.58,0,1.04-.47,1.04-1.04,0-.18-.16-.58-.19-.69Z"/><path class="cls-4" d="M845.39,435.95l-13.64-35.61-13.59,35.59c-.04,.11-.07,.23-.07,.36,0,.58,.47,1.04,1.04,1.04h25.28c.58,0,1.04-.47,1.04-1.04,0-.12-.02-.23-.06-.34Z"/><path class="cls-13" d="M824.97,418.06l6.77-17.73-5.96-15.54c-.28-.79-1.08-1.39-1.94-1.39h-8.89c-.93,0-1.72,.57-2.05,1.39l-19.53,51.13c-.04,.11-.07,.23-.07,.36,0,.58,.47,1.04,1.04,1.04h11.36c.96,0,1.77-.61,2.07-1.47l3.67-11.02,7.88-23.71,5.63,16.93Z"/></g><g><g><path class="cls-7" d="M891.45,418.7l-5.33-11.5h-7.15c-.9,0-1.63,.73-1.63,1.63,0,0,0,0,0,0v26.96s0,0,0,0c0,.9,.73,1.63,1.63,1.63,0,0,0,0,0,0h10.77c.9,0,1.63-.73,1.63-1.64,0,0,0,0,0,0v-17.1h.05Z"/><path class="cls-7" d="M900.57,383.51h-10.82l5.32,11.5h3.16c3.37,0,6.1,2.73,6.1,6.1,0,2.56-1.58,4.75-3.82,5.66l5.18,11.18c7.22-2.19,12.48-8.9,12.48-16.84,0-9.72-7.88-17.6-17.6-17.6Z"/></g><path class="cls-3" d="M891.45,418.7h0s9.12,0,9.12,0c1.78,0,3.5-.27,5.12-.76l-15.94-34.44h-12.96s0,0-.01,0c-.58,0-1.04,.47-1.04,1.04,0,.18,.08,.39,.13,.5l15.59,33.65Z"/></g></g><g><path class="cls-12" d="M886.1,245.72c0,9.57,7.84,17.3,17.53,17.3s17.53-7.49,17.53-17.3-7.84-17.53-17.53-17.53-17.53,7.84-17.53,17.53Z"/><path class="cls-13" d="M879.8,205.17l-24.35-34.75c-15.11,9.37-27.16,23.19-34.36,39.64l39.66,17.82c3.65-9.72,10.31-17.75,19.06-22.71Z"/><path class="cls-13" d="M857.66,246.99l-43.97,.04c.49,30.66,16.58,57.47,40.74,72.84l24.73-34.88c-12.8-7.53-20.99-21.65-21.5-38.01Z"/><path class="cls-4" d="M857.61,245.37c0-6.2,1.11-12.1,3.13-17.49l-39.66-17.82c-4.76,10.88-7.42,22.9-7.42,35.54,0,.48,.02,.95,.02,1.43l43.97-.04c-.02-.54-.05-1.07-.05-1.62Z"/><path class="cls-4" d="M953.54,310.53l-12.52-18.02-6.63-9.45c-.95-1.08-2.33-1.77-3.88-1.77-1.14,0-2.18,.38-3.04,1h-.02c-6.18,4.48-13.63,7.42-21.67,8.27l2.93,42.78c15.75-1.2,30.19-6.5,42.78-14.96l.81-.56c1.35-.94,2.24-2.49,2.24-4.26,0-1.13-.37-2.18-.99-3.03Z"/><path class="cls-4" d="M879.16,285l-24.73,34.88c5.65,3.59,11.75,6.55,18.18,8.8l14.81-39.98c-2.92-.95-5.69-2.18-8.27-3.7Z"/><path class="cls-13" d="M900.97,290.81c-4.8,0-9.34-.75-13.54-2.12l-14.81,39.98c9.12,3.18,18.94,4.93,29.17,4.93,2.34,0,4.65-.09,6.93-.26l-2.93-42.78c-1.58,.17-3.19,.26-4.81,.26Z"/><path class="cls-4" d="M901.78,157.26c-17.02,0-32.89,4.82-46.34,13.16l24.35,34.75c6.15-3.49,13.31-5.47,21.18-5.47,.63,0,1.25,.01,1.87,.04l.84-42.45c-.63-.01-1.27-.03-1.91-.03Z"/><path class="cls-4" d="M951.91,172.87v-.02s-.88-.6-.88-.6c-3.42-2.3-6.96-4.34-10.61-6.14l-18.39,38.75c1.78,.94,3.49,2,5.11,3.18l.02,.02c.85,.61,1.89,.98,3.01,.98,1.8,0,3.39-.92,4.32-2.32l18.71-26.56c.61-.85,.97-1.88,.97-3.01,0-1.78-.9-3.35-2.27-4.29Z"/><path class="cls-13" d="M903.69,157.3l-.84,42.45c6.95,.27,13.43,2.07,19.18,5.13l18.39-38.75c-11.2-5.5-23.47-8.56-36.72-8.82Z"/></g></g></g></g><g><rect class="cls-6" x="0" y="0" width="616.76" height="616.76"/><path class="cls-10" d="M0,526.96v89.8H616.76v-81.33h-28.54v7.73h-10.15v7.18h-10.71v20.99h-31.58s0-17.67,0-17.67h-11.84s0-6.92,0-6.92h-15.79v7.47h-11.84s0-42.52,0-42.52h-55.83v80.63h-12.97s0-10.49,0-10.49h-21.99s0-13.81,0-13.81h-13.53s0-6.63,0-6.63h-6.77v6.63h-11.84s-9.02,5.52-9.02,5.52l-11.79-201.21c7.21-.62,12.56-2.89,12.56-5.6,0-1.01-.75-1.96-2.06-2.79,1.26-1.13,2.06-2.73,2.06-4.52,0-2.71-1.83-5-4.32-5.82,.43-.42,.7-1.01,.7-1.65,0-1.29-1.08-2.35-2.4-2.35h-5.59s-3.06-148.1-3.06-148.1l-6.65,148.1h-5.68c-1.32,0-2.4,1.06-2.4,2.35,0,.64,.27,1.22,.7,1.65-2.5,.82-4.32,3.11-4.32,5.82,0,1.79,.8,3.4,2.06,4.52-1.31,.83-2.06,1.78-2.06,2.79,0,2.41,4.23,4.48,10.24,5.34l-8.42,164.47h-2.82v10.2h-10.71v22.94h-20.86v20.99h-4.51s0-16.57,0-16.57h-4.51s0-30.93,0-30.93h-5.64s0-7.18,0-7.18h-13.53v7.18h-5.08v43.27c-74.37-75.08-150.92-23.98-173.69-5.53v-21.91h-17.29s0-15.83,0-15.83h-17.67s0-19.88,0-19.88c0,0-21.8,0-23.68,0-1.88,0,0,29.82,0,29.82H11.71s0-11.41,0-11.41H.06s0-14.73,0-14.73H0Z"/><g><g><g class="cls-2"><path class="cls-9" d="M388.98,127c-3.44,2.67-7.94,3.21-12.48,3.67-9.03,.12-16.85-2.24-21.83-9.47-2.78-4.14-3.75-9.15-4.21-14.29-.48,1.37-.74,2.27-1.06,3.54-1.69,6.39-3.63,12.85-5.44,19.23h-.9s-12.68-.05-12.68-.05c.47-2.06,.99-3.98,1.42-5.97,3.29-12.17,6.67-24.02,9.72-36.34,.48-2.01-.89-4.52-3.01-5.76-2.9-1.58-6.18-1.53-9.66,.5-4.12,2.51-6.13,8.43-7.24,11.91-3.32,11.79-6.77,23.87-10.09,35.66-3.91,0-9.47-.04-13.68,0,.9-3.22,8.87-31.26,8.87-31.26,4.18-14.54,8.32-23.93,18.97-28.48,7.04-3.59,17.66-3.98,24.5,.35,5.67,4.2,6.44,10,5.39,16.61-.33,1.7-.6,2.33-.76,3.37l.19,.19c2.47-3.63,5.02-7.53,8.31-11.01,8.92-8.58,17.93-13.15,32.15-12.48,4.37,.44,6.33,.96,9.23,2.66-.45,1.74-.85,3.64-1.24,5.34l-1.7,6.65c-1.13-.21-1.71-.32-3.32-.5-10.96-1.87-22.06-.31-29.13,8.5-4.33,5.83-7.22,14.1-3.83,21.33,2.55,4.09,7.34,6.88,12.17,6.8l.31-1.01c2.12-7.42,4.55-15.2,6.4-22.73h13.89s-9.28,33.05-9.28,33.05h0Z"/></g><path class="cls-9" d="M428.37,67.84s9.54-.03,13.73,0l-15.34,54.67c-1.2,4.63-3.79,9.39,.16,13.48,2.87,2.66,5.8,2.54,9.35,2.7l.8,.04-3.5,12.67c-7.92,0-15.08-1.58-19.8-7.41-3.63-4.95-3.48-12.91-1.66-18.66l16.25-57.49h0Z"/><path class="cls-9" d="M309.1,70.26c.53,1.21,.85,2.27,.37,4.12-.97,2.74-3.42,5.44-5.86,6.55-1.64,.71-3.28,1.21-5.85,.13-1.86-1.19-2.44-2.24-2.86-3.48-.9-3.73,1.58-6.85,4.54-8.96,2.75-1.85,7.73-1.69,9.67,1.64h0Z"/><g class="cls-17"><path class="cls-9" d="M462.79,73.64c.53,1.21,.85,2.27,.37,4.12-.98,2.74-3.42,5.43-5.86,6.55-1.64,.71-3.28,1.22-5.85,.13-1.86-1.19-2.44-2.24-2.86-3.48-.9-3.73,1.58-6.85,4.54-8.96,2.75-1.85,7.73-1.69,9.67,1.64h0Z"/><path class="cls-9" d="M102.47,69.08c-1,3.48-2.01,6.88-3.01,10.32-4.22,.1-9.04-.23-11.32,4.02-4.77,10.32,6.76,18.91,1.46,29.4-4.42,9.95-14.5,17.57-25.55,17.45-3.74-.04-5.05-.1-7.52-.91,.81-3.74,1.61-6.91,2.47-10.66,1.03,.06,2.51,.11,3.83,.16,4.87,0,10.63-1.9,12.62-6.56,.21-.56,.44-1.52,.52-2.29,.78-7.75-4.93-13.74-3.28-21.95,1.12-8.69,8.38-17,16.96-19.13,3.18-.91,9.51-1.26,12.83,.15h0Z"/><path class="cls-9" d="M163.21,83.92c-7.88,6.26-14.18,14.99-10.97,25.46,1.45,4.09,4.52,7.11,8.81,7.8,9.74,1.55,18.55-3.44,23.99-11.13,3.94-5.53,6.21-14.25,2.16-20.48-5.68-7.81-16.82-6.82-23.99-1.66h0Zm129.99-15.66l-4.1,12.8h-12.67s-13.71,48.61-13.71,48.61h-14.26s13.79-48.63,13.79-48.63l-12.13,.02c-.54,3.73-1.42,7.38-3.34,10.8-2.51,3.92-5.81,6.93-9.45,9.17,.15,.23,.57,.34,1.16,.69,6.62,4.09,3.02,12.86,1.51,18.32l-3.05,9.59h-13.89c1.95-5.12,6.66-13.37,3.26-20.25-2.31-3.57-6.2-2.2-10.04-2.28l2.82-10.12c6.03,.7,11.51-1.59,14.87-6.27,1.27-2.09,1.5-4.61,0-7.15-3.3-4.54-10.7-3.25-13.39-3.33l-.56,2.01-6.49,22.95-6.79,24.47h-13.56s7.22-25.56,7.22-25.56c-3.13,8.52-10.43,16.64-16.92,20.54-7.61,4.6-17.31,7.46-27.25,6.21-7.81-1.39-14.41-6.88-17.12-14.18-1.78-5.75-1.58-11.05-.5-16.46l.23-.9c-6.66,9.19-16.94,14.83-28.77,12.82l3.38-11.77c2,.04,3.22-.17,5.33-.5,4.01-.56,9.82-4.02,11.17-8.81,.7-3.63-.15-7.34-3.17-9.31-3.05-1.55-7.58-1.04-11.01-1.09l-14.21,48.97h-13.71s17.88-61.7,17.88-61.7c1.32,0,1.45,.05,3.06,0,11.48,.21,22.93-1.43,30.96,4.66,3.94,3.67,5.76,8.91,4.16,15.28l.32-.48c9.93-14.53,25.03-24.22,43.62-19.63,5.29,1.81,8.88,4.71,11.98,9.47,2.34,4.01,4.63,11.64,2.84,18.59l7.78-27.87c1.33-.01,6.22-.38,12.29-.42,8.86-.06,20.07,.83,25.04,6.73,1.14,1.55,1.67,2.6,2.04,3.92l2.95-9.92h40.42Z"/></g><path class="cls-9" d="M305.14,85.58c-.53,1.58-.69,2.43-1.08,3.63l-2.47,8.35-7.5,26.62c-.57,1.86-.99,3.55-1.57,5.45-4.65,.05-9.14,.05-13.52,.05l.74-2.8,9.52-34c.77-2.43,1.3-4.77,2.04-7.31h13.84Z"/><g class="cls-18"><polygon class="cls-9" points="446.19 88.64 460.17 88.64 447.85 132.5 433.97 132.5 446.19 88.64 446.19 88.64"/><path class="cls-9" d="M513.04,102.49c-9.2,4.6-17.58,13.67-17.19,24.41,.19,0,.18-.11,.54-.26l33.46-25c-5.18-1.7-11.67-1.43-16.81,.85h0Zm-70.66,36.18c2.8-.42,2.79-.33,7.91-1.91,6.24-1.69,9.62-9.39,11.32-15.65l6.27-22.67c3.1-12.22,13.47-27.68,27.5-30.77,2.77-.43,3.4-.36,4.73-.43h54.9s-3.39,12.12-3.39,12.12h-46.23c-6.59-.09-14.05,.59-18.24,6.86-.57,.91-1.8,2.85-.57,2.93,7.41,.02,15.53,0,23.63,0l.02,2.81c5.53-2.7,12.13-3.34,18.82-2.82,1.18,.17,1.6,.27,2.48,.48,5.76,1.43,11.62,5.25,14.65,11.59l-46.77,34.57c.58,1.08,1.74,2.24,2.82,2.82,9.35,4.87,19.28-.69,26.81-6.49l3.24-2.34c1.48,3.77,2.48,6.23,3.91,10.15-10.32,9.5-24.15,15.11-38.14,11.32-6.64-2.09-12.48-8.62-13.99-15.3-2.44-14.03,3.93-27.01,14.75-36.47h-17.23c-1.45,3.11-2.19,5.86-3.01,9.15-3.79,15.45-8.24,34.73-25.9,40.49-4.37,1.44-8.53,1.79-13.01,2.29l-.93,.07,3.65-12.81h0Z"/></g></g><text class="cls-11" transform="translate(367.19 553.72)"><tspan class="cls-16" x="0" y="0">T</tspan><tspan class="cls-15" x="22.79" y="0">ORON</tspan><tspan class="cls-16" x="139.5" y="0">T</tspan><tspan class="cls-15" x="162.29" y="0">O</tspan></text><g><g><rect class="cls-14" x="59.71" y="187.44" width="50.63" height="300.1" rx="11.55" ry="11.55"/><g><path class="cls-14" d="M196.72,348.19c3.36,0,6.09-2.73,6.09-6.09v-61.46c0-13.12,2.63-22.22,7.88-27.33,4.55-4.37,11.73-6.56,21.55-6.56,10.16,0,17.35,2.18,21.55,6.56,5.26,4.74,7.89,13.85,7.89,27.33v61.46c0,3.36,2.73,6.09,6.09,6.09h45.64c3.36,0,6.09-2.73,6.09-6.09v-61.46c0-30.24-8.76-54.11-26.28-71.6-15.42-14.93-35.74-22.4-60.97-22.4-25.23,0-45.56,7.47-60.98,22.4-17.52,17.49-26.28,41.36-26.28,71.6v61.46c0,3.36,2.73,6.09,6.09,6.09h45.64Z"/><path class="cls-14" d="M267.77,340.74c-3.36,0-6.09,2.73-6.09,6.09v48.91c0,13.48-2.63,22.59-7.89,27.32-4.2,4.37-11.39,6.56-21.55,6.56-9.82,0-17-2.18-21.55-6.56-5.25-5.09-7.88-14.21-7.88-27.32v-48.91c0-3.36-2.73-6.09-6.09-6.09h-45.64c-3.36,0-6.09,2.73-6.09,6.09v48.91c0,30.24,8.76,54.1,26.28,71.59,15.42,14.94,35.75,22.41,60.98,22.41,25.23,0,45.55-7.46,60.97-22.41,17.52-17.49,26.28-41.35,26.28-71.59v-48.91c0-3.36-2.73-6.09-6.09-6.09h-45.64Z"/></g></g><g><path class="cls-9" d="M371.55,485.28c-1.3-1.56-1.94-3.34-1.94-5.33V196.9c0-2.27,.64-4.19,1.94-5.75,1.29-1.56,2.76-2.34,4.41-2.34h38.08c1.64,0,3.11,.79,4.41,2.34,1.29,1.56,1.94,3.48,1.94,5.75v98.04l71.57-101.45c2.12-3.12,4.7-4.69,7.76-4.69h50.42c2.58,0,4.11,.57,4.59,1.71,.47,1.14,.35,2.28-.35,3.41l-128.34,181.6c-3.76,5.4-5.64,12.22-5.64,20.46v83.98c0,1.99-.59,3.77-1.76,5.33-1.18,1.57-2.71,2.35-4.58,2.35h-38.08c-1.65,0-3.12-.78-4.41-2.35Zm129.05,0c-2.24-1.28-4.05-3.2-5.47-5.75l-37.37-64.37c-1.65-3.12-2.47-5.68-2.47-7.67,0-2.56,.94-5.26,2.82-8.1,1.88-2.56,4.06-5.61,6.52-9.16,2.47-3.55,4.88-6.89,7.23-10.02l7.4-10.66c1.41-2.27,3.05-3.41,4.94-3.41,2.12,0,3.88,1.28,5.29,3.84l63.47,108.7c.47,1.14,.7,2.13,.7,2.98,0,3.7-2.11,5.69-6.34,5.97h-35.96c-4.94-.28-8.52-1.07-10.76-2.35Z"/><rect class="cls-9" x="443.42" y="296.84" width="50.41" height="173.57" rx="11.55" ry="11.55" transform="translate(-129.03 285.71) rotate(-30)"/></g></g></g></g></svg>